<svg width="26" height="25" viewBox="0 0 26 25" fill="none" xmlns="http://www.w3.org/2000/svg">
<path d="M22.8228 0.768555H4.07275C2.34932 0.768555 0.947754 2.10773 0.947754 3.75446V21.6699C0.947754 23.3166 2.34932 24.6558 4.07275 24.6558H22.8228C24.5462 24.6558 25.9478 23.3166 25.9478 21.6699V3.75446C25.9478 2.10773 24.5462 0.768555 22.8228 0.768555Z" fill="#1976D2"/>
<path d="M22.0415 12.7123H18.1353V9.72637C18.1353 8.90227 18.8353 8.97991 19.6978 8.97991H21.2603V5.24756H18.1353C15.5462 5.24756 13.4478 7.25258 13.4478 9.72637V12.7123H10.3228V16.4446H13.4478V24.6558H18.1353V16.4446H20.479L22.0415 12.7123Z" fill="#FAFAFA"/>
</svg>
