<svg width="26" height="25" viewBox="0 0 26 25" fill="none" xmlns="http://www.w3.org/2000/svg">
<path d="M18.1353 0.768555H8.76034C4.4463 0.768555 0.947876 4.11127 0.947876 8.23331V17.191C0.947876 21.313 4.4463 24.6558 8.76034 24.6558H18.1353C22.4493 24.6558 25.9478 21.313 25.9478 17.191V8.23331C25.9478 4.11127 22.4493 0.768555 18.1353 0.768555ZM23.604 17.191C23.604 20.0724 21.1509 22.4163 18.1353 22.4163H8.76034C5.74473 22.4163 3.29161 20.0724 3.29161 17.191V8.23331C3.29161 5.35191 5.74473 3.00798 8.76034 3.00798H18.1353C21.1509 3.00798 23.604 5.35191 23.604 8.23331V17.191Z" fill="url(#paint0_linear)"/>
<path d="M20.1666 7.08838C20.6265 7.08838 20.9994 6.7321 20.9994 6.2926C20.9994 5.85311 20.6265 5.49683 20.1666 5.49683C19.7066 5.49683 19.3337 5.85311 19.3337 6.2926C19.3337 6.7321 19.7066 7.08838 20.1666 7.08838Z" fill="url(#paint1_linear)"/>
<path d="M13.4478 6.74048C9.99629 6.74048 7.19788 9.41435 7.19788 12.7123C7.19788 16.0102 9.99629 18.6841 13.4478 18.6841C16.8993 18.6841 19.6978 16.0102 19.6978 12.7123C19.6978 9.41435 16.8993 6.74048 13.4478 6.74048ZM13.4478 16.4447C11.2947 16.4447 9.5416 14.7696 9.5416 12.7123C9.5416 10.6535 11.2947 8.9799 13.4478 8.9799C15.6009 8.9799 17.354 10.6535 17.354 12.7123C17.354 14.7696 15.6009 16.4447 13.4478 16.4447Z" fill="url(#paint2_linear)"/>
<defs>
<linearGradient id="paint0_linear" x1="3.23638" y1="22.4693" x2="22.7301" y2="2.06724" gradientUnits="userSpaceOnUse">
<stop stop-color="#FFC107"/>
<stop offset="0.507" stop-color="#F44336"/>
<stop offset="0.99" stop-color="#9C27B0"/>
</linearGradient>
<linearGradient id="paint1_linear" x1="19.5777" y1="6.85539" x2="20.7018" y2="5.67879" gradientUnits="userSpaceOnUse">
<stop stop-color="#FFC107"/>
<stop offset="0.507" stop-color="#F44336"/>
<stop offset="0.99" stop-color="#9C27B0"/>
</linearGradient>
<linearGradient id="paint2_linear" x1="9.02856" y1="16.9349" x2="17.465" y2="8.10551" gradientUnits="userSpaceOnUse">
<stop stop-color="#FFC107"/>
<stop offset="0.507" stop-color="#F44336"/>
<stop offset="0.99" stop-color="#9C27B0"/>
</linearGradient>
</defs>
</svg>
