<svg width="63" height="31" viewBox="0 0 63 31" fill="none" xmlns="http://www.w3.org/2000/svg">
<path d="M0 11.8637V0.617899H3.71119C4.85495 0.617899 5.86627 0.834164 6.74516 1.26669C7.62405 1.69922 8.30128 2.31455 8.77684 3.11267C9.25842 3.91079 9.50222 4.82734 9.50824 5.86232V6.58063C9.50824 7.64135 9.26745 8.57078 8.78587 9.3689C8.31031 10.167 7.62706 10.7798 6.73613 11.2071C5.85123 11.6345 4.81883 11.8534 3.63896 11.8637H0ZM1.7337 1.83825V10.651H3.55769C4.89408 10.651 5.93249 10.2957 6.67293 9.58516C7.41938 8.87458 7.7926 7.86277 7.7926 6.54973V5.89321C7.7926 4.61622 7.44045 3.62501 6.73613 2.91957C6.03784 2.20899 5.04458 1.84855 3.75634 1.83825H1.7337Z" fill="black"/>
<path d="M15.9283 12.0181C14.604 12.0181 13.5264 11.6474 12.6957 10.9059C11.865 10.1593 11.4496 9.16293 11.4496 7.91683V7.65423C11.4496 6.82521 11.6332 6.08631 12.0004 5.43751C12.3737 4.78357 12.8914 4.2738 13.5535 3.90821C14.2217 3.53747 14.9441 3.3521 15.7207 3.3521C16.9908 3.3521 17.9781 3.70997 18.6824 4.4257C19.3867 5.14144 19.7389 6.16612 19.7389 7.49975V8.09448H13.1201C13.1442 8.91834 13.4241 9.58516 13.9599 10.0949C14.5016 10.5995 15.1879 10.8519 16.0186 10.8519C16.6086 10.8519 17.1082 10.7489 17.5176 10.5429C17.9269 10.3369 18.2851 10.064 18.5921 9.72419L19.6124 10.4039C18.7938 11.4801 17.5657 12.0181 15.9283 12.0181ZM15.7207 4.52611C15.0464 4.52611 14.4806 4.73723 14.0231 5.15946C13.5656 5.57654 13.2826 6.16354 13.1743 6.92047H18.0684V6.81234C18.0202 6.08631 17.7915 5.52505 17.3821 5.12856C16.9728 4.72693 16.4189 4.52611 15.7207 4.52611Z" fill="black"/>
<path d="M23.4952 11.8637H21.8247V0H23.4952V11.8637Z" fill="black"/>
<path d="M27.992 11.8637H26.3215V3.50658H27.992V11.8637ZM26.186 1.28986C26.186 1.05815 26.2673 0.862484 26.4298 0.70286C26.5984 0.543236 26.8452 0.463424 27.1703 0.463424C27.4953 0.463424 27.7422 0.543236 27.9107 0.70286C28.0793 0.862484 28.1635 1.05815 28.1635 1.28986C28.1635 1.52158 28.0793 1.71467 27.9107 1.86914C27.7422 2.02362 27.4953 2.10086 27.1703 2.10086C26.8452 2.10086 26.5984 2.02362 26.4298 1.86914C26.2673 1.71467 26.186 1.52158 26.186 1.28986Z" fill="black"/>
<path d="M33.8974 9.925L36.3173 3.50658H38.0239L34.5204 11.8637H33.2472L29.7076 3.50658H31.4142L33.8974 9.925Z" fill="black"/>
<path d="M43.5591 12.0181C42.2348 12.0181 41.1572 11.6474 40.3265 10.9059C39.4958 10.1593 39.0804 9.16293 39.0804 7.91683V7.65423C39.0804 6.82521 39.264 6.08631 39.6312 5.43751C40.0044 4.78357 40.5221 4.2738 41.1843 3.90821C41.8525 3.53747 42.5749 3.3521 43.3514 3.3521C44.6216 3.3521 45.6089 3.70997 46.3132 4.4257C47.0175 5.14144 47.3696 6.16612 47.3696 7.49975V8.09448H40.7509C40.775 8.91834 41.0549 9.58516 41.5907 10.0949C42.1324 10.5995 42.8187 10.8519 43.6494 10.8519C44.2394 10.8519 44.739 10.7489 45.1483 10.5429C45.5577 10.3369 45.9159 10.064 46.2229 9.72419L47.2432 10.4039C46.4245 11.4801 45.1965 12.0181 43.5591 12.0181ZM43.3514 4.52611C42.6772 4.52611 42.1114 4.73723 41.6539 5.15946C41.1964 5.57654 40.9134 6.16354 40.8051 6.92047H45.6992V6.81234C45.651 6.08631 45.4222 5.52505 45.0129 5.12856C44.6036 4.72693 44.0497 4.52611 43.3514 4.52611Z" fill="black"/>
<path d="M54.0335 4.78872C53.7807 4.75267 53.5068 4.73465 53.2118 4.73465C52.1162 4.73465 51.3728 5.13371 50.9815 5.93183V11.8637H49.311V3.50658H50.9364L50.9635 4.47205C51.5112 3.72542 52.2878 3.3521 53.2931 3.3521C53.6182 3.3521 53.865 3.38815 54.0335 3.46024V4.78872Z" fill="black"/>
<path d="M58.9366 9.77053L61.2121 3.50658H63L59.0721 13.1535C58.4641 14.5438 57.4979 15.2389 56.1736 15.2389L55.8575 15.2158L55.2345 15.1154V13.9568L55.686 13.9877C56.2518 13.9877 56.6913 13.8899 57.0043 13.6942C57.3233 13.4985 57.5852 13.1407 57.7899 12.6206L58.1601 11.771L54.6746 3.50658H56.4986L58.9366 9.77053Z" fill="black"/>
<path d="M7.25082 25.8792H1.7337V30.8455H0V19.5998H8.14476V20.8201H1.7337V24.6665H7.25082V25.8792Z" fill="black"/>
<path d="M9.31862 26.5897C9.31862 25.771 9.50523 25.0347 9.87846 24.3808C10.2577 23.7268 10.7814 23.2222 11.4496 22.8669C12.1238 22.5116 12.8914 22.334 13.7522 22.334C15.0826 22.334 16.1571 22.7279 16.9758 23.5157C17.8005 24.3035 18.2128 25.3514 18.2128 26.6593V26.7597C18.2128 27.5732 18.0292 28.3044 17.662 28.9532C17.3008 29.5969 16.7801 30.0989 16.0999 30.4593C15.4257 30.8198 14.6491 31 13.7702 31C12.4459 31 11.3714 30.6061 10.5467 29.8183C9.72796 29.0304 9.31862 27.9877 9.31862 26.6902V26.5897ZM10.9981 26.7597C10.9981 27.6865 11.248 28.4306 11.7476 28.9918C12.2533 29.5531 12.9275 29.8337 13.7702 29.8337C14.619 29.8337 15.2932 29.5505 15.7929 28.9841C16.2925 28.4125 16.5424 27.6144 16.5424 26.5897C16.5424 25.6732 16.2865 24.9317 15.7748 24.3653C15.2692 23.7938 14.595 23.508 13.7522 23.508C12.9275 23.508 12.2623 23.7886 11.7566 24.3499C11.251 24.9111 10.9981 25.7144 10.9981 26.7597Z" fill="black"/>
<path d="M19.8653 26.5897C19.8653 25.771 20.0519 25.0347 20.4251 24.3808C20.8044 23.7268 21.3281 23.2222 21.9963 22.8669C22.6705 22.5116 23.438 22.334 24.2988 22.334C25.6292 22.334 26.7037 22.7279 27.5224 23.5157C28.3471 24.3035 28.7595 25.3514 28.7595 26.6593V26.7597C28.7595 27.5732 28.5759 28.3044 28.2087 28.9532C27.8475 29.5969 27.3268 30.0989 26.6466 30.4593C25.9723 30.8198 25.1958 31 24.3169 31C22.9925 31 21.918 30.6061 21.0933 29.8183C20.2746 29.0304 19.8653 27.9877 19.8653 26.6902V26.5897ZM21.5448 26.7597C21.5448 27.6865 21.7946 28.4306 22.2943 28.9918C22.7999 29.5531 23.4741 29.8337 24.3169 29.8337C25.1657 29.8337 25.8399 29.5505 26.3395 28.9841C26.8392 28.4125 27.089 27.6144 27.089 26.5897C27.089 25.6732 26.8332 24.9317 26.3215 24.3653C25.8158 23.7938 25.1416 23.508 24.2988 23.508C23.4741 23.508 22.8089 23.7886 22.3033 24.3499C21.7976 24.9111 21.5448 25.7144 21.5448 26.7597Z" fill="black"/>
<path d="M30.448 26.5975C30.448 25.3153 30.8032 24.2855 31.5135 23.508C32.2239 22.7253 33.1539 22.334 34.3037 22.334C35.4475 22.334 36.3534 22.6687 37.0216 23.3381V18.9819H38.6921V30.8455H37.1571L37.0758 29.9496C36.4076 30.6499 35.4776 31 34.2857 31C33.1539 31 32.2299 30.6035 31.5135 29.8105C30.8032 29.0176 30.448 27.9826 30.448 26.7056V26.5975ZM32.1185 26.7597C32.1185 27.7071 32.3473 28.4486 32.8048 28.9841C33.2623 29.5196 33.8944 29.7874 34.701 29.7874C35.7605 29.7874 36.534 29.3806 37.0216 28.567V24.7283C36.522 23.9405 35.7545 23.5466 34.7191 23.5466C33.9004 23.5466 33.2623 23.8169 32.8048 24.3576C32.3473 24.8982 32.1185 25.6989 32.1185 26.7597Z" fill="black"/>
</svg>
