<svg width="15" height="14" viewBox="0 0 15 14" fill="none" xmlns="http://www.w3.org/2000/svg">
<path d="M14.6515 5.08292C14.5553 4.79871 14.2915 4.59685 13.9793 4.56997L9.73948 4.20212L8.06292 0.45266C7.9393 0.177873 7.65776 0 7.34495 0C7.03215 0 6.75061 0.177873 6.62699 0.453303L4.95043 4.20212L0.709893 4.56997C0.398319 4.59749 0.135163 4.79871 0.0384405 5.08292C-0.0582818 5.36713 0.0310434 5.67886 0.266741 5.87537L3.47158 8.56092L2.52655 12.5385C2.45739 12.8309 2.5762 13.1332 2.83016 13.3087C2.96667 13.4029 3.12638 13.4509 3.28744 13.4509C3.4263 13.4509 3.56404 13.4151 3.68766 13.3444L7.34495 11.2559L11.0009 13.3444C11.2684 13.4982 11.6057 13.4842 11.8591 13.3087C12.1132 13.1327 12.2318 12.8303 12.1627 12.5385L11.2177 8.56092L14.4225 5.87591C14.6582 5.67886 14.7482 5.36767 14.6515 5.08292Z" fill="#FFC107"/>
</svg>
