<svg width="36" height="20" viewBox="0 0 36 20" fill="none" xmlns="http://www.w3.org/2000/svg">
<path d="M18.0988 19.1866H20.1933C20.1933 19.1866 20.8264 19.1196 21.1485 18.7867C21.4465 18.4811 21.4355 17.9075 21.4355 17.9075C21.4355 17.9075 21.3939 15.2217 22.6997 14.826C23.9858 14.4367 25.6377 17.4219 27.3883 18.5711C28.7116 19.4399 29.7172 19.2494 29.7172 19.2494L34.3992 19.1866C34.3992 19.1866 36.8486 19.0421 35.6874 17.202C35.5932 17.0513 35.0105 15.8413 32.2061 13.3544C29.2702 10.7502 29.6646 11.1731 33.2008 6.67019C35.3544 3.92785 36.2155 2.25313 35.946 1.53719C35.6896 0.854748 34.1056 1.03478 34.1056 1.03478L28.8386 1.06409C28.8386 1.06409 28.4487 1.01385 28.1573 1.17922C27.8746 1.34251 27.6928 1.71932 27.6928 1.71932C27.6928 1.71932 26.858 3.84202 25.7451 5.64652C23.3986 9.4544 22.4587 9.65537 22.0753 9.41881C21.1836 8.86825 21.407 7.20401 21.407 6.02333C21.407 2.33268 21.992 0.794039 20.2656 0.396295C19.6916 0.264411 19.2709 0.176489 17.8052 0.161835C15.9254 0.142994 14.3326 0.168115 13.4321 0.588887C12.8318 0.869401 12.3695 1.49533 12.6521 1.53091C13.0005 1.57488 13.7892 1.73397 14.2077 2.27825C14.7488 2.97954 14.7291 4.55796 14.7291 4.55796C14.7291 4.55796 15.0402 8.90175 14.0039 9.44184C13.2919 9.81237 12.3169 9.05666 10.2246 5.60047C9.15323 3.83155 8.34259 1.87423 8.34259 1.87423C8.34259 1.87423 8.18704 1.50998 7.90879 1.31529C7.57139 1.07874 7.09815 1.00338 7.09815 1.00338L2.08971 1.03269C2.08971 1.03269 1.33823 1.05362 1.06217 1.36554C0.816788 1.64396 1.04245 2.21755 1.04245 2.21755C1.04245 2.21755 4.9642 10.9826 9.403 15.4017C13.4759 19.4524 18.0988 19.1866 18.0988 19.1866Z" fill="#1E88E5"/>
</svg>
